<svg xmlns="http://www.w3.org/2000/svg" version="1.1" xmlns:xlink="http://www.w3.org/1999/xlink" xmlns:svgjs="http://svgjs.dev/svgjs" viewBox="0 0 8.442310363097285 2.776200308135917"><g transform="matrix(0.7480849652391766,0,0,0.7480849652391766,1.4130557528541905,0.8417104044567292)"><g transform="matrix(1,0,0,1,0,0)" clip-path="url(#SvgjsClipPath52918)"><g clip-path="url(#SvgjsClipPath52916a714b0d8-394f-4bb7-b6bf-78c053ecdb5d)"><path d=" M 4.3637073810617375 -0.1704021220078246 L 3.323557677593046 0.869482575166992 L 3.8951762534865457 0.869482575166992 C 3.904229406348581 0.8695524173143953 3.9132163176512553 0.8679347732799135 3.9216768828742774 0.8647124618772003 C 3.9297711552276673 0.8615285847522619 3.9370902475040013 0.8566491899013674 3.9431423926783387 0.8504021220078185 L 4.983292096147043 -0.1897475814608732 L 4.411938526547412 -0.1897475814608732 C 4.402885901593175 -0.189811254110305 4.393900118926366 -0.18819381323027873 4.385437897159681 -0.18497746817108138 C 4.377326762490232 -0.18155744377440097 4.369949221989046 -0.1766090934382386 4.3637073810617375 -0.1704021220078246 Z" fill="#b7b7a5" transform="matrix(1,0,0,1,0,0)" fill-rule="evenodd"></path></g><g clip-path="url(#SvgjsClipPath52916a714b0d8-394f-4bb7-b6bf-78c053ecdb5d)"><path d=" M 4.461494703502494 0.8498721094200653 L 4.7127206700982445 0.5986461428243148 L 4.492235433592263 0.3781609063183409 L 4.191718296335326 0.6784130372814067 L 4.363177368473988 0.8498721094200653 C 4.3762614368817445 0.8627315103210108 4.393858116090062 0.8699604163741538 4.412203532841306 0.8700125877547452 C 4.430629603647176 0.869973275665393 4.448313518720575 0.8627475899364728 4.461494703502494 0.8498721094200653 Z" fill="#000000" transform="matrix(1,0,0,1,0,0)" fill-rule="evenodd"></path></g><g clip-path="url(#SvgjsClipPath52916a714b0d8-394f-4bb7-b6bf-78c053ecdb5d)"><path d=" M 5.014827845118445 -0.17013711571394957 L 4.763601878522694 0.08135385717567906 L 5.267113836889708 0.5848658155426895 L 5.267113836889708 0.013247239649193221 C 5.267099162372692 0.004177335906804719 5.265391542955262 -0.0048101347112735615 5.2620787173060375 -0.013253389738544674 C 5.258792478931137 -0.021293760049639954 5.253926319887318 -0.028592998615368986 5.247768377436646 -0.034718899542612536 L 5.112085154971437 -0.17040212200782776 C 5.099098954379494 -0.1834090818194466 5.081438534379103 -0.19066417327906995 5.0630589906041195 -0.19054260034251097 C 5.044922878357357 -0.1903538641674698 5.027592587137359 -0.1830218178820903 5.014827845118445 -0.17013711571394957 Z" fill="#ba8437" transform="matrix(1,0,0,1,0,0)" fill-rule="evenodd"></path></g><g clip-path="url(#SvgjsClipPath52916a714b0d8-394f-4bb7-b6bf-78c053ecdb5d)"><path d=" M 5.24803338373054 0.6166665708079756 L 4.996807417134777 0.36544060421222513 L 4.493295458767764 0.8689525625792357 L 5.064914034661263 0.8689525625792357 C 5.073969317606064 0.8690475541732922 5.082960872104492 0.8674290743635721 5.091414664049007 0.8641824492894438 C 5.0994902517177 0.8609629030574867 5.106802289766373 0.8560882110250331 5.112880173853069 0.8498721094200653 L 5.248563396318278 0.7141888869548499 C 5.261617538772218 0.7012128911178868 5.26896125763364 0.6835688912560391 5.268968880946839 0.6651627225875346 C 5.268709963731114 0.6468580476311705 5.261177264812693 0.6294088843138086 5.24803338373054 0.6166665708079787 Z" fill="#cf9645" transform="matrix(1,0,0,1,0,0)" fill-rule="evenodd"></path></g><g clip-path="url(#SvgjsClipPath52916a714b0d8-394f-4bb7-b6bf-78c053ecdb5d)"><path d=" M 3.845620076531464 -0.17013711571394957 L 3.5946591162295953 0.08108885088180401 L 3.8151443527355626 0.3015740873877779 L 4.115396483698632 0.0013219564247121118 L 3.94393741155997 -0.17013711571394957 C 3.930951210968039 -0.18314407552556522 3.9132907909676358 -0.19039916698518858 3.894911247192664 -0.1902775940486296 C 3.876462832375715 -0.19035232812884512 3.858737346746189 -0.18310965658129574 3.845620076531477 -0.1701371157139464 Z" fill="#000000" transform="matrix(1,0,0,1,0,0)" fill-rule="evenodd"></path></g><g clip-path="url(#SvgjsClipPath52916a714b0d8-394f-4bb7-b6bf-78c053ecdb5d)"><path d=" M 3.2922869349155133 0.8498721094200653 L 3.5435129015112636 0.5986461428243148 L 3.0400009431442503 0.09513418445730437 L 3.0400009431442503 0.6667527603508007 C 3.0399903967006923 0.6758250417383531 3.0416989016004052 0.6848171727894777 3.0450360627279203 0.6932533897385322 C 3.0481901882385425 0.7013631670920986 3.053073579467332 0.7086882539352919 3.0593464025973116 0.7147188995426064 L 3.1950296250625203 0.8504021220078216 C 3.2081136934702768 0.8632615229087671 3.225710372678581 0.8704904289619101 3.2440557894298387 0.8705426003425017 C 3.2622117470254666 0.8701987633667151 3.279516599453294 0.8627823980404999 3.2922869349155133 0.8498721094200653 Z" fill="#ba8437" transform="matrix(1,0,0,1,0,0)" fill-rule="evenodd"></path></g><g clip-path="url(#SvgjsClipPath52916a714b0d8-394f-4bb7-b6bf-78c053ecdb5d)"><path d=" M 3.0590813963034176 0.06306842289814008 L 3.3103073628991804 0.31429438949389366 L 3.813819321266194 -0.18921756887311997 L 3.2422007453726946 -0.18921756887311997 C 3.233149693033322 -0.1892630074424269 3.224167222105268 -0.18764616267537593 3.2157001159849505 -0.18444745558332498 C 3.2075618046830616 -0.18122355634781026 3.2002331468602137 -0.17624730720883391 3.194234606180889 -0.16987210942007136 L 3.0585513837156673 -0.03445389324873119 C 3.045569527486839 -0.02145097183099262 3.0383189407404245 -0.003801517250900638 3.0384109053809873 0.014572271118584251 C 3.0386288566592587 0.03283253806394515 3.0460593573886268 0.05026563592900499 3.0590813963034176 0.06306842289814008 Z" fill="#cf9645" transform="matrix(1,0,0,1,0,0)" fill-rule="evenodd"></path></g></g><g><path d=" M 0.06 0.6699999999999999 L 0.06 0.6539999999999999 L 0.14100000000000001 0.6139999999999999 L 0.14100000000000001 0.06599999999999995 L 0.06 0.025999999999999912 L 0.06 0.009999999999999898 L 0.325 0.009999999999999898 L 0.325 0.025999999999999912 L 0.246 0.06599999999999995 L 0.246 0.30199999999999994 L 0.5710000000000001 0.30199999999999994 L 0.5710000000000001 0.06599999999999995 L 0.491 0.025999999999999912 L 0.491 0.009999999999999898 L 0.756 0.009999999999999898 L 0.756 0.025999999999999912 L 0.675 0.06599999999999995 L 0.675 0.6139999999999999 L 0.756 0.6539999999999999 L 0.756 0.6699999999999999 L 0.491 0.6699999999999999 L 0.491 0.6539999999999999 L 0.5710000000000001 0.6139999999999999 L 0.5710000000000001 0.35699999999999993 L 0.246 0.35699999999999993 L 0.246 0.6139999999999999 L 0.325 0.6539999999999999 L 0.325 0.6699999999999999 L 0.06 0.6699999999999999 M 1.21997900390625 0.6799999999999999 Q 1.14797900390625 0.6799999999999999 1.08647900390625 0.6545 Q 1.02497900390625 0.6289999999999999 0.97947900390625 0.5834999999999999 Q 0.93397900390625 0.5379999999999999 0.90897900390625 0.4759999999999999 Q 0.8839790039062501 0.4139999999999999 0.8839790039062501 0.3399999999999999 Q 0.8839790039062501 0.2659999999999999 0.90897900390625 0.2039999999999999 Q 0.93397900390625 0.1419999999999999 0.97947900390625 0.09649999999999992 Q 1.02497900390625 0.050999999999999934 1.08647900390625 0.025499999999999967 Q 1.14797900390625 -1.1102230246251565e-16 1.21997900390625 -1.1102230246251565e-16 Q 1.29197900390625 -1.1102230246251565e-16 1.35347900390625 0.025499999999999967 Q 1.41497900390625 0.050999999999999934 1.4604790039062499 0.09649999999999992 Q 1.50597900390625 0.1419999999999999 1.53147900390625 0.2039999999999999 Q 1.55697900390625 0.2659999999999999 1.55697900390625 0.3399999999999999 Q 1.55697900390625 0.4139999999999999 1.53147900390625 0.4759999999999999 Q 1.50597900390625 0.5379999999999999 1.4604790039062499 0.5834999999999999 Q 1.41497900390625 0.6289999999999999 1.35347900390625 0.6545 Q 1.29197900390625 0.6799999999999999 1.21997900390625 0.6799999999999999 M 1.23997900390625 0.6299999999999999 Q 1.3009790039062499 0.6299999999999999 1.3469790039062501 0.5979999999999999 Q 1.39297900390625 0.566 1.41897900390625 0.5079999999999999 Q 1.44497900390625 0.44999999999999996 1.44497900390625 0.37099999999999994 Q 1.44497900390625 0.2739999999999999 1.41297900390625 0.2014999999999999 Q 1.38097900390625 0.1289999999999999 1.32597900390625 0.08899999999999997 Q 1.27097900390625 0.04899999999999993 1.20397900390625 0.04899999999999993 Q 1.14297900390625 0.04899999999999993 1.09597900390625 0.0804999999999999 Q 1.04897900390625 0.11199999999999988 1.0224790039062501 0.16999999999999993 Q 0.9959790039062499 0.22799999999999992 0.9959790039062499 0.30699999999999994 Q 0.9959790039062499 0.4039999999999999 1.02847900390625 0.4769999999999999 Q 1.06097900390625 0.5499999999999999 1.11647900390625 0.59 Q 1.1719790039062499 0.6299999999999999 1.23997900390625 0.6299999999999999 M 1.68495751953125 0.6699999999999999 L 1.68495751953125 0.6539999999999999 L 1.76595751953125 0.6139999999999999 L 1.76595751953125 0.06599999999999995 L 1.68495751953125 0.025999999999999912 L 1.68495751953125 0.009999999999999898 L 1.96495751953125 0.009999999999999898 Q 2.08295751953125 0.009999999999999898 2.15445751953125 0.052999999999999936 Q 2.22595751953125 0.09599999999999986 2.22595751953125 0.18899999999999995 Q 2.22595751953125 0.24399999999999994 2.18845751953125 0.2864999999999999 Q 2.15095751953125 0.3289999999999999 2.08695751953125 0.3534999999999999 Q 2.02295751953125 0.37799999999999995 1.94095751953125 0.37799999999999995 L 1.87095751953125 0.37799999999999995 L 1.87095751953125 0.6139999999999999 L 1.96295751953125 0.6539999999999999 L 1.96295751953125 0.6699999999999999 L 1.68495751953125 0.6699999999999999 M 1.87095751953125 0.06499999999999995 L 1.87095751953125 0.3249999999999999 L 1.94695751953125 0.3249999999999999 Q 2.02595751953125 0.3249999999999999 2.07095751953125 0.2889999999999999 Q 2.11595751953125 0.25299999999999995 2.11595751953125 0.1969999999999999 Q 2.11595751953125 0.1269999999999999 2.0704575195312502 0.09599999999999986 Q 2.02495751953125 0.06499999999999995 1.93995751953125 0.06499999999999995 L 1.87095751953125 0.06499999999999995 M 2.3369443359375 0.6699999999999999 L 2.3369443359375 0.6539999999999999 L 2.4179443359375 0.6139999999999999 L 2.4179443359375 0.06599999999999995 L 2.3369443359375 0.025999999999999912 L 2.3369443359375 0.009999999999999898 L 2.8389443359374997 0.009999999999999898 L 2.8389443359374997 0.18199999999999994 L 2.8229443359374997 0.18199999999999994 L 2.7579443359374998 0.06499999999999995 L 2.5229443359375 0.06499999999999995 L 2.5229443359375 0.30199999999999994 L 2.6889443359375 0.30199999999999994 L 2.7399443359375 0.21799999999999992 L 2.7559443359375 0.21799999999999992 L 2.7559443359375 0.43899999999999995 L 2.7399443359375 0.43899999999999995 L 2.6889443359375 0.35699999999999993 L 2.5229443359375 0.35699999999999993 L 2.5229443359375 0.6149999999999999 L 2.7849443359375 0.6149999999999999 L 2.8509443359375 0.48299999999999993 L 2.8669443359374998 0.48299999999999993 L 2.8669443359374998 0.6699999999999999 L 2.3369443359375 0.6699999999999999" fill="#803500" fill-rule="nonzero"></path></g><g><path d=" M 5.424438868359101 0.6699999999999999 L 5.424438868359101 0.6539999999999999 L 5.505438868359102 0.6139999999999999 L 5.505438868359102 0.06799999999999995 L 5.425438868359102 0.025999999999999912 L 5.425438868359102 0.009999999999999898 L 5.582438868359102 0.009999999999999898 L 5.965438868359101 0.4809999999999999 L 5.965438868359101 0.06499999999999995 L 5.862438868359101 0.025999999999999912 L 5.862438868359101 0.009999999999999898 L 6.115438868359101 0.009999999999999898 L 6.115438868359101 0.025999999999999912 L 6.035438868359101 0.06499999999999995 L 6.035438868359101 0.6749999999999999 L 5.992438868359101 0.6749999999999999 L 5.575438868359101 0.16299999999999992 L 5.575438868359101 0.6149999999999999 L 5.678438868359101 0.6539999999999999 L 5.678438868359101 0.6699999999999999 L 5.424438868359101 0.6699999999999999 M 6.225445216015351 0.6699999999999999 L 6.225445216015351 0.6539999999999999 L 6.3064452160153515 0.6139999999999999 L 6.3064452160153515 0.06599999999999995 L 6.225445216015351 0.025999999999999912 L 6.225445216015351 0.009999999999999898 L 6.727445216015352 0.009999999999999898 L 6.727445216015352 0.18199999999999994 L 6.711445216015352 0.18199999999999994 L 6.646445216015351 0.06499999999999995 L 6.411445216015352 0.06499999999999995 L 6.411445216015352 0.30199999999999994 L 6.577445216015351 0.30199999999999994 L 6.6284452160153515 0.21799999999999992 L 6.6444452160153515 0.21799999999999992 L 6.6444452160153515 0.43899999999999995 L 6.6284452160153515 0.43899999999999995 L 6.577445216015351 0.35699999999999993 L 6.411445216015352 0.35699999999999993 L 6.411445216015352 0.6149999999999999 L 6.6734452160153515 0.6149999999999999 L 6.739445216015351 0.48299999999999993 L 6.755445216015351 0.48299999999999993 L 6.755445216015351 0.6699999999999999 L 6.225445216015351 0.6699999999999999 M 7.014441798046602 0.6699999999999999 L 7.014441798046602 0.6539999999999999 L 7.115441798046602 0.6139999999999999 L 7.115441798046602 0.06499999999999995 L 6.9574417980466015 0.06499999999999995 L 6.886441798046602 0.21599999999999991 L 6.870441798046602 0.21599999999999991 L 6.870441798046602 0.009999999999999898 L 7.464441798046602 0.009999999999999898 L 7.464441798046602 0.21599999999999991 L 7.448441798046602 0.21599999999999991 L 7.378441798046602 0.06499999999999995 L 7.219441798046602 0.06499999999999995 L 7.219441798046602 0.6139999999999999 L 7.321441798046601 0.6539999999999999 L 7.321441798046601 0.6699999999999999 L 7.014441798046602 0.6699999999999999" fill="#803500" fill-rule="nonzero"></path></g><g><path d=" M 1.1346032795821945 1.401816055587088 L 1.0372955872745022 1.401816055587088 L 1.0372955872745022 1.6510468248178571 L 1.0103725103514254 1.6510468248178571 L 1.0103725103514254 1.401816055587088 L 0.913064818043733 1.401816055587088 L 0.913064818043733 1.3779699017409341 L 1.1346032795821945 1.3779699017409341 L 1.1346032795821945 1.401816055587088 M 1.212867064137483 1.654892978664011 Q 1.1913286025990215 1.654892978664011 1.1730593718297908 1.6466237478947803 Q 1.15479014106056 1.6383545171255494 1.1415209102913293 1.6239314402024725 Q 1.1282516795220985 1.6095083632793956 1.1209439872144062 1.5908545171255495 Q 1.1136362949067138 1.5722006709717034 1.1136362949067138 1.5514314402024725 Q 1.1136362949067138 1.529892978664011 1.1209439872144062 1.5112391325101648 Q 1.1282516795220985 1.4925852863563187 1.141713217983637 1.4781622094332416 Q 1.1551747564451755 1.4637391325101647 1.1734439872144062 1.455469901740934 Q 1.191713217983637 1.4472006709717034 1.2132516795220984 1.4472006709717034 Q 1.23479014106056 1.4472006709717034 1.252867064137483 1.455469901740934 Q 1.2709439872144062 1.4637391325101647 1.2844055256759446 1.4781622094332416 Q 1.2978670641374832 1.4925852863563187 1.3051747564451754 1.5112391325101648 Q 1.3124824487528677 1.529892978664011 1.3124824487528677 1.5514314402024725 Q 1.3124824487528677 1.5722006709717034 1.3051747564451754 1.5908545171255495 Q 1.2978670641374832 1.6095083632793956 1.2845978333682524 1.6239314402024725 Q 1.2713286025990216 1.6383545171255494 1.2530593718297909 1.6466237478947803 Q 1.23479014106056 1.654892978664011 1.212867064137483 1.654892978664011 M 1.1401747564451754 1.551816055587088 Q 1.1401747564451754 1.5741237478947803 1.1499824487528678 1.592392978664011 Q 1.15979014106056 1.6106622094332417 1.1763286025990216 1.6212391325101647 Q 1.1928670641374832 1.631816055587088 1.212867064137483 1.631816055587088 Q 1.232867064137483 1.631816055587088 1.2494055256759447 1.6210468248178571 Q 1.2659439872144063 1.6102775940486265 1.2759439872144063 1.5916237478947801 Q 1.2859439872144063 1.572969901740934 1.2859439872144063 1.551046824817857 Q 1.2859439872144063 1.528739132510165 1.2759439872144063 1.5102775940486264 Q 1.2659439872144063 1.4918160555870879 1.2494055256759447 1.4810468248178572 Q 1.232867064137483 1.4702775940486263 1.212867064137483 1.4702775940486263 Q 1.1928670641374832 1.4702775940486263 1.1765209102913292 1.4814314402024724 Q 1.1601747564451754 1.4925852863563187 1.1501747564451754 1.5108545171255494 Q 1.1401747564451754 1.5291237478947801 1.1401747564451754 1.551816055587088 M 1.4372788730317139 1.653739132510165 Q 1.4168942576470984 1.653739132510165 1.3995865653394062 1.6452775940486264 Q 1.382278873031714 1.6368160555870879 1.3697788730317138 1.622392978664011 Q 1.3572788730317138 1.6079699017409341 1.350355796108637 1.5895083632793956 Q 1.34343271918556 1.571046824817857 1.34343271918556 1.5514314402024725 Q 1.34343271918556 1.5302775940486264 1.3501634884163292 1.5116237478947803 Q 1.3568942576470984 1.4929699017409341 1.3693942576470985 1.4783545171255494 Q 1.3818942576470985 1.4637391325101647 1.3988173345701753 1.455469901740934 Q 1.4157404114932524 1.4472006709717034 1.436509642262483 1.4472006709717034 Q 1.4622788730317138 1.4472006709717034 1.4813173345701753 1.4602775940486263 Q 1.500355796108637 1.4733545171255495 1.51343271918556 1.4925852863563187 L 1.51343271918556 1.4506622094332418 L 1.5368942576470985 1.4506622094332418 L 1.5368942576470985 1.651816055587088 Q 1.5368942576470985 1.6795083632793957 1.5236250268778677 1.6985468248178572 Q 1.510355796108637 1.7175852863563188 1.487855796108637 1.7272006709717034 Q 1.465355796108637 1.736816055587088 1.4388173345701754 1.736816055587088 Q 1.404586565339406 1.736816055587088 1.38343271918556 1.7245083632793956 Q 1.362278873031714 1.7122006709717033 1.3488173345701755 1.6914314402024726 L 1.3649711807240215 1.6787391325101648 Q 1.3768942576470984 1.6975852863563188 1.3967019499547908 1.706816055587088 Q 1.4165096422624832 1.716046824817857 1.4388173345701754 1.716046824817857 Q 1.45843271918556 1.716046824817857 1.474778873031714 1.7089314402024725 Q 1.4911250268778677 1.7018160555870878 1.5009327191855601 1.6875852863563188 Q 1.5107404114932523 1.6733545171255495 1.5107404114932523 1.651816055587088 L 1.5107404114932523 1.6122006709717034 Q 1.4992019499547908 1.6310468248178571 1.4792019499547908 1.642392978664011 Q 1.4592019499547908 1.653739132510165 1.4372788730317139 1.653739132510165 M 1.444586565339406 1.631816055587088 Q 1.456509642262483 1.631816055587088 1.4674711807240215 1.6275852863563187 Q 1.47843271918556 1.6233545171255495 1.4876634884163293 1.6162391325101648 Q 1.4968942576470985 1.6091237478947802 1.5030481038009447 1.6002775940486265 Q 1.5092019499547908 1.5914314402024725 1.5107404114932523 1.5822006709717034 L 1.5107404114932523 1.5202775940486264 Q 1.5049711807240216 1.5056622094332417 1.4942019499547907 1.4943160555870878 Q 1.48343271918556 1.4829699017409341 1.4697788730317138 1.4766237478947801 Q 1.4561250268778676 1.4702775940486263 1.4415096422624831 1.4702775940486263 Q 1.424586565339406 1.4702775940486263 1.4113173345701755 1.477392978664011 Q 1.3980481038009447 1.4845083632793956 1.3890096422624831 1.4962391325101647 Q 1.3799711807240216 1.507969901740934 1.3749711807240215 1.5225852863563187 Q 1.3699711807240216 1.5372006709717032 1.3699711807240216 1.551816055587088 Q 1.3699711807240216 1.567969901740934 1.3757404114932523 1.582392978664011 Q 1.381509642262483 1.5968160555870878 1.3917019499547907 1.6081622094332417 Q 1.4018942576470985 1.6195083632793956 1.4155481038009445 1.6256622094332418 Q 1.4292019499547908 1.631816055587088 1.444586565339406 1.631816055587088 M 1.6816946257360408 1.654892978664011 Q 1.6601561641975793 1.654892978664011 1.6416946257360407 1.6466237478947803 Q 1.6232330872745022 1.6383545171255494 1.6097715488129638 1.6239314402024725 Q 1.5963100103514254 1.6095083632793956 1.5888100103514253 1.5906622094332417 Q 1.5813100103514253 1.571816055587088 1.5813100103514253 1.5502775940486264 Q 1.5813100103514253 1.5222006709717033 1.5941946257360406 1.4987391325101649 Q 1.607079241120656 1.4752775940486265 1.6297715488129638 1.4612391325101648 Q 1.6524638565052716 1.4472006709717034 1.6813100103514254 1.4472006709717034 Q 1.71092539496681 1.4472006709717034 1.7330407795821947 1.4614314402024724 Q 1.7551561641975792 1.4756622094332417 1.767848471889887 1.4989314402024725 Q 1.7805407795821946 1.5222006709717033 1.7805407795821946 1.549892978664011 Q 1.7805407795821946 1.552969901740934 1.7805407795821946 1.5558545171255493 Q 1.7805407795821946 1.5587391325101647 1.7801561641975792 1.5602775940486264 L 1.6086177026591177 1.5602775940486264 Q 1.6105407795821947 1.581816055587088 1.6207330872745023 1.5985468248178571 Q 1.6309253949668099 1.6152775940486264 1.647271548812964 1.6250852863563188 Q 1.6636177026591177 1.634892978664011 1.6828484718898868 1.634892978664011 Q 1.7024638565052714 1.634892978664011 1.7199638565052715 1.624892978664011 Q 1.7374638565052716 1.614892978664011 1.7443869334283484 1.5987391325101648 L 1.7670792411206562 1.604892978664011 Q 1.76092539496681 1.6191237478947802 1.7482330872745022 1.6306622094332417 Q 1.7355407795821947 1.6422006709717032 1.71842539496681 1.6485468248178572 Q 1.7013100103514254 1.654892978664011 1.6816946257360408 1.654892978664011 M 1.6078484718898869 1.5414314402024725 L 1.7559253949668099 1.5414314402024725 Q 1.7543869334283484 1.5195083632793955 1.7441946257360408 1.5029699017409341 Q 1.7340023180437332 1.4864314402024725 1.7176561641975792 1.4770083632793956 Q 1.7013100103514254 1.4675852863563186 1.6816946257360408 1.4675852863563186 Q 1.6620792411206562 1.4675852863563186 1.64592539496681 1.4770083632793956 Q 1.6297715488129638 1.4864314402024725 1.6195792411206562 1.5031622094332417 Q 1.6093869334283484 1.519892978664011 1.6078484718898869 1.5414314402024725 M 1.9157216314451753 1.6414314402024726 Q 1.9126447083682523 1.6425852863563186 1.9061062468297907 1.6456622094332418 Q 1.899567785291329 1.6487391325101648 1.89033701606056 1.6510468248178571 Q 1.8811062468297908 1.6533545171255495 1.87033701606056 1.6533545171255495 Q 1.8591831699067138 1.6533545171255495 1.8493754775990214 1.6491237478947802 Q 1.839567785291329 1.644892978664011 1.8337985545220983 1.6362391325101648 Q 1.8280293237528675 1.6275852863563187 1.8280293237528675 1.614892978664011 L 1.8280293237528675 1.4714314402024724 L 1.8003370160605598 1.4714314402024724 L 1.8003370160605598 1.4506622094332418 L 1.8280293237528675 1.4506622094332418 L 1.8280293237528675 1.382969901740934 L 1.8541831699067137 1.382969901740934 L 1.8541831699067137 1.4506622094332418 L 1.90033701606056 1.4506622094332418 L 1.90033701606056 1.4714314402024724 L 1.8541831699067137 1.4714314402024724 L 1.8541831699067137 1.6075852863563187 Q 1.8549524006759446 1.6183545171255493 1.8620677852913292 1.6237391325101649 Q 1.8691831699067136 1.6291237478947802 1.878413939137483 1.6291237478947802 Q 1.8891831699067136 1.6291237478947802 1.8980293237528676 1.625469901740934 Q 1.9068754775990215 1.621816055587088 1.9087985545220985 1.6202775940486263 L 1.9157216314451753 1.6414314402024726 M 2.117460851697579 1.6510468248178571 L 2.091307005543733 1.6510468248178571 L 2.091307005543733 1.5391237478947801 Q 2.091307005543733 1.5052775940486263 2.079383928620656 1.4881622094332418 Q 2.067460851697579 1.4710468248178572 2.045153159389887 1.4710468248178572 Q 2.030537774774502 1.4710468248178572 2.0161146978514255 1.478546824817857 Q 2.0016916209283484 1.486046824817857 1.99073008246681 1.4989314402024725 Q 1.9797685440052715 1.5118160555870879 1.9751531593898868 1.5283545171255495 L 1.9751531593898868 1.6510468248178571 L 1.9489993132360406 1.6510468248178571 L 1.9489993132360406 1.3702775940486263 L 1.9751531593898868 1.3702775940486263 L 1.9751531593898868 1.4960468248178571 Q 1.9870762363129637 1.4737391325101648 2.008422390159118 1.460469901740934 Q 2.0297685440052713 1.4472006709717034 2.053999313236041 1.4472006709717034 Q 2.071307005543733 1.4472006709717034 2.0834223901591176 1.4533545171255495 Q 2.095537774774502 1.4595083632793955 2.1030377747745024 1.4712391325101648 Q 2.110537774774502 1.4829699017409341 2.113999313236041 1.498546824817857 Q 2.117460851697579 1.5141237478947802 2.117460851697579 1.5337391325101648 L 2.117460851697579 1.6510468248178571 M 2.2603484718898867 1.654892978664011 Q 2.238810010351425 1.654892978664011 2.2203484718898867 1.6466237478947803 Q 2.2018869334283484 1.6383545171255494 2.18842539496681 1.6239314402024725 Q 2.174963856505271 1.6095083632793956 2.1674638565052713 1.5906622094332417 Q 2.1599638565052715 1.571816055587088 2.1599638565052715 1.5502775940486264 Q 2.1599638565052715 1.5222006709717033 2.172848471889887 1.4987391325101649 Q 2.185733087274502 1.4752775940486265 2.20842539496681 1.4612391325101648 Q 2.2311177026591174 1.4472006709717034 2.2599638565052715 1.4472006709717034 Q 2.289579241120656 1.4472006709717034 2.3116946257360405 1.4614314402024724 Q 2.333810010351425 1.4756622094332417 2.3465023180437328 1.4989314402024725 Q 2.3591946257360408 1.5222006709717033 2.3591946257360408 1.549892978664011 Q 2.3591946257360408 1.552969901740934 2.3591946257360408 1.5558545171255493 Q 2.3591946257360408 1.5587391325101647 2.358810010351425 1.5602775940486264 L 2.1872715488129635 1.5602775940486264 Q 2.1891946257360404 1.581816055587088 2.1993869334283485 1.5985468248178571 Q 2.209579241120656 1.6152775940486264 2.2259253949668096 1.6250852863563188 Q 2.2422715488129636 1.634892978664011 2.261502318043733 1.634892978664011 Q 2.2811177026591176 1.634892978664011 2.2986177026591177 1.624892978664011 Q 2.3161177026591173 1.614892978664011 2.3230407795821946 1.5987391325101648 L 2.3457330872745024 1.604892978664011 Q 2.339579241120656 1.6191237478947802 2.3268869334283484 1.6306622094332417 Q 2.3141946257360404 1.6422006709717032 2.297079241120656 1.6485468248178572 Q 2.2799638565052716 1.654892978664011 2.2603484718898867 1.654892978664011 M 2.186502318043733 1.5414314402024725 L 2.334579241120656 1.5414314402024725 Q 2.3330407795821944 1.5195083632793955 2.3228484718898867 1.5029699017409341 Q 2.312656164197579 1.4864314402024725 2.296310010351425 1.4770083632793956 Q 2.2799638565052716 1.4675852863563186 2.2603484718898867 1.4675852863563186 Q 2.240733087274502 1.4675852863563186 2.2245792411206557 1.4770083632793956 Q 2.20842539496681 1.4864314402024725 2.198233087274502 1.5031622094332417 Q 2.1880407795821943 1.519892978664011 2.186502318043733 1.5414314402024725 M 2.50014658637306 1.4737391325101648 Q 2.473992740219214 1.4745083632793956 2.4541850479115213 1.4883545171255494 Q 2.434377355603829 1.5022006709717033 2.426300432526906 1.5264314402024726 L 2.426300432526906 1.6510468248178571 L 2.4001465863730598 1.6510468248178571 L 2.4001465863730598 1.4506622094332418 L 2.4247619709884445 1.4506622094332418 L 2.4247619709884445 1.4987391325101649 Q 2.43514658637306 1.4775852863563186 2.4522619709884443 1.4645083632793956 Q 2.469377355603829 1.4514314402024726 2.4886081248345984 1.449892978664011 Q 2.492454278680752 1.4495083632793957 2.495338894065368 1.4495083632793957 Q 2.498223509449983 1.4495083632793957 2.50014658637306 1.449892978664011 L 2.50014658637306 1.4737391325101648 M 2.502657478800945 1.6822006709717032 L 2.5091959403394064 1.649892978664011 L 2.5003497864932522 1.649892978664011 L 2.5003497864932522 1.6133545171255494 L 2.525734401877868 1.6133545171255494 L 2.525734401877868 1.649892978664011 L 2.516119017262483 1.6822006709717032 L 2.502657478800945 1.6822006709717032 M 2.7788141419620027 1.379892978664011 L 2.804198757346618 1.379892978664011 L 2.842660295808156 1.476816055587088 L 2.88150644965431 1.379892978664011 L 2.907275680423541 1.379892978664011 L 2.859583372731233 1.4964314402024725 L 2.9118910650389256 1.619892978664011 L 3.0107372188850796 1.3779699017409341 L 3.0399679881158486 1.3779699017409341 L 2.924198757346618 1.6510468248178571 L 2.900352603500464 1.6510468248178571 L 2.843044911192772 1.5160468248178571 L 2.785352603500464 1.6510468248178571 L 2.7618910650389257 1.6510468248178571 L 2.6465064496543103 1.3779699017409341 L 2.675352603500464 1.3779699017409341 L 2.7745833727312332 1.619892978664011 L 2.8265064496543104 1.4964314402024725 L 2.7788141419620027 1.379892978664011 M 3.134392567442772 1.654892978664011 Q 3.11285410590431 1.654892978664011 3.094392567442772 1.6466237478947803 Q 3.0759310289812336 1.6383545171255494 3.062469490519695 1.6239314402024725 Q 3.0490079520581563 1.6095083632793956 3.0415079520581565 1.5906622094332417 Q 3.0340079520581567 1.571816055587088 3.0340079520581567 1.5502775940486264 Q 3.0340079520581567 1.5222006709717033 3.046892567442772 1.4987391325101649 Q 3.0597771828273874 1.4752775940486265 3.082469490519695 1.4612391325101648 Q 3.1051617982120026 1.4472006709717034 3.1340079520581567 1.4472006709717034 Q 3.1636233366735413 1.4472006709717034 3.1857387212889257 1.4614314402024724 Q 3.2078541059043104 1.4756622094332417 3.220546413596618 1.4989314402024725 Q 3.233238721288926 1.5222006709717033 3.233238721288926 1.549892978664011 Q 3.233238721288926 1.552969901740934 3.233238721288926 1.5558545171255493 Q 3.233238721288926 1.5587391325101647 3.2328541059043103 1.5602775940486264 L 3.0613156443658487 1.5602775940486264 Q 3.0632387212889256 1.581816055587088 3.0734310289812337 1.5985468248178571 Q 3.0836233366735413 1.6152775940486264 3.099969490519695 1.6250852863563188 Q 3.116315644365849 1.634892978664011 3.135546413596618 1.634892978664011 Q 3.155161798212003 1.634892978664011 3.172661798212003 1.624892978664011 Q 3.1901617982120025 1.614892978664011 3.1970848751350798 1.5987391325101648 L 3.2197771828273876 1.604892978664011 Q 3.213623336673541 1.6191237478947802 3.2009310289812336 1.6306622094332417 Q 3.1882387212889256 1.6422006709717032 3.171123336673541 1.6485468248178572 Q 3.1540079520581568 1.654892978664011 3.134392567442772 1.654892978664011 M 3.0605464135966183 1.5414314402024725 L 3.2086233366735413 1.5414314402024725 Q 3.2070848751350796 1.5195083632793955 3.196892567442772 1.5029699017409341 Q 3.1867002597504643 1.4864314402024725 3.1703541059043103 1.4770083632793956 Q 3.1540079520581568 1.4675852863563186 3.134392567442772 1.4675852863563186 Q 3.114777182827387 1.4675852863563186 3.098623336673541 1.4770083632793956 Q 3.082469490519695 1.4864314402024725 3.072277182827387 1.5031622094332417 Q 3.0620848751350795 1.519892978664011 3.0605464135966183 1.5414314402024725 M 3.5836156368538297 1.5806622094332416 Q 3.5836156368538297 1.601046824817857 3.5732310214692142 1.6170083632793957 Q 3.562846406084599 1.632969901740934 3.545346406084599 1.6420083632793956 Q 3.527846406084599 1.6510468248178571 3.5070771753153682 1.6510468248178571 L 3.3782310214692144 1.6510468248178571 L 3.3782310214692144 1.3779699017409341 L 3.509769483007676 1.3779699017409341 Q 3.529000252238445 1.3779699017409341 3.5430387137769066 1.3881622094332418 Q 3.557077175315368 1.3983545171255494 3.5645771753153683 1.414316055587088 Q 3.572077175315368 1.4302775940486263 3.572077175315368 1.4475852863563186 Q 3.572077175315368 1.467969901740934 3.5616925599307527 1.4852775940486262 Q 3.5513079445461373 1.5025852863563187 3.532846406084599 1.511046824817857 Q 3.5563079445461376 1.517969901740934 3.5699617906999834 1.5368160555870878 Q 3.5836156368538297 1.5556622094332417 3.5836156368538297 1.5806622094332416 M 3.556692559930753 1.5760468248178572 Q 3.556692559930753 1.5622006709717033 3.5505387137769064 1.550469901740934 Q 3.5443848676230605 1.538739132510165 3.5338079445461377 1.5314314402024725 Q 3.5232310214692144 1.5241237478947802 3.509769483007676 1.5241237478947802 L 3.405154098392291 1.5241237478947802 L 3.405154098392291 1.6275852863563187 L 3.5070771753153682 1.6275852863563187 Q 3.520923329161522 1.6275852863563187 3.532077175315368 1.6202775940486263 Q 3.5432310214692144 1.612969901740934 3.5499617906999834 1.601239132510165 Q 3.556692559930753 1.5895083632793956 3.556692559930753 1.5760468248178572 M 3.405154098392291 1.4014314402024726 L 3.405154098392291 1.5022006709717033 L 3.499000252238445 1.5022006709717033 Q 3.5124617906999838 1.5022006709717033 3.522846406084599 1.4950852863563187 Q 3.533231021469214 1.487969901740934 3.5393848676230606 1.4764314402024725 Q 3.5455387137769065 1.464892978664011 3.5455387137769065 1.4518160555870878 Q 3.5455387137769065 1.437969901740934 3.539769483007676 1.42662374789478 Q 3.534000252238445 1.4152775940486264 3.5240002522384453 1.4083545171255494 Q 3.514000252238445 1.4014314402024726 3.5013079445461375 1.4014314402024726 L 3.405154098392291 1.4014314402024726 M 3.729583184930753 1.4737391325101648 Q 3.703429338776907 1.4745083632793956 3.683621646469214 1.4883545171255494 Q 3.663813954161522 1.5022006709717033 3.655737031084599 1.5264314402024726 L 3.655737031084599 1.6510468248178571 L 3.6295831849307527 1.6510468248178571 L 3.6295831849307527 1.4506622094332418 L 3.6541985695461374 1.4506622094332418 L 3.6541985695461374 1.4987391325101649 Q 3.664583184930753 1.4775852863563186 3.6816985695461373 1.4645083632793956 Q 3.698813954161522 1.4514314402024726 3.7180447233922913 1.449892978664011 Q 3.721890877238445 1.4495083632793957 3.7247754926230607 1.4495083632793957 Q 3.727660108007676 1.4495083632793957 3.729583184930753 1.449892978664011 L 3.729583184930753 1.4737391325101648 M 3.7651651786206566 1.6510468248178571 L 3.7651651786206566 1.4506622094332418 L 3.791319024774503 1.4506622094332418 L 3.791319024774503 1.6510468248178571 L 3.7651651786206566 1.6510468248178571 M 3.7651651786206566 1.4087391325101648 L 3.7651651786206566 1.3702775940486263 L 3.791319024774503 1.3702775940486263 L 3.791319024774503 1.4087391325101648 L 3.7651651786206566 1.4087391325101648 M 4.0180565548225795 1.6510468248178571 L 3.9919027086687335 1.6510468248178571 L 3.9919027086687335 1.5391237478947801 Q 3.9919027086687335 1.5037391325101648 3.9815180932841185 1.487392978664011 Q 3.971133477899503 1.4710468248178572 3.9488257855918105 1.4710468248178572 Q 3.933441170207195 1.4710468248178572 3.918441170207195 1.478546824817857 Q 3.9034411702071954 1.486046824817857 3.8920950163610413 1.4989314402024725 Q 3.8807488625148876 1.5118160555870879 3.8757488625148877 1.5283545171255495 L 3.8757488625148877 1.6510468248178571 L 3.8495950163610413 1.6510468248178571 L 3.8495950163610413 1.4506622094332418 L 3.873441170207195 1.4506622094332418 L 3.873441170207195 1.4960468248178571 Q 3.8815180932841185 1.4814314402024724 3.894595016361041 1.470469901740934 Q 3.9076719394379644 1.4595083632793955 3.924210400976426 1.4533545171255495 Q 3.9407488625148877 1.4472006709717034 3.958441170207195 1.4472006709717034 Q 3.974979631745657 1.4472006709717034 3.9865180932841184 1.4533545171255495 Q 3.99805655482258 1.4595083632793955 4.004979631745657 1.4708545171255494 Q 4.0119027086687336 1.4822006709717033 4.014979631745657 1.4981622094332416 Q 4.0180565548225795 1.5141237478947802 4.0180565548225795 1.5337391325101648 L 4.0180565548225795 1.6510468248178571 M 4.154790328861041 1.653739132510165 Q 4.134405713476426 1.653739132510165 4.117098021168733 1.6452775940486264 Q 4.099790328861041 1.6368160555870879 4.087290328861041 1.622392978664011 Q 4.074790328861041 1.6079699017409341 4.067867251937964 1.5895083632793956 Q 4.060944175014887 1.571046824817857 4.060944175014887 1.5514314402024725 Q 4.060944175014887 1.5302775940486264 4.067674944245656 1.5116237478947803 Q 4.074405713476426 1.4929699017409341 4.086905713476425 1.4783545171255494 Q 4.0994057134764255 1.4637391325101647 4.1163287903995025 1.455469901740934 Q 4.1332518673225795 1.4472006709717034 4.15402109809181 1.4472006709717034 Q 4.179790328861041 1.4472006709717034 4.198828790399503 1.4602775940486263 Q 4.217867251937964 1.4733545171255495 4.230944175014887 1.4925852863563187 L 4.230944175014887 1.4506622094332418 L 4.254405713476426 1.4506622094332418 L 4.254405713476426 1.651816055587088 Q 4.254405713476426 1.6795083632793957 4.241136482707195 1.6985468248178572 Q 4.2278672519379645 1.7175852863563188 4.205367251937965 1.7272006709717034 Q 4.182867251937964 1.736816055587088 4.1563287903995025 1.736816055587088 Q 4.122098021168734 1.736816055587088 4.100944175014887 1.7245083632793956 Q 4.079790328861041 1.7122006709717033 4.066328790399503 1.6914314402024726 L 4.082482636553348 1.6787391325101648 Q 4.094405713476426 1.6975852863563188 4.114213405784118 1.706816055587088 Q 4.13402109809181 1.716046824817857 4.1563287903995025 1.716046824817857 Q 4.175944175014887 1.716046824817857 4.192290328861041 1.7089314402024725 Q 4.2086364827071945 1.7018160555870878 4.218444175014887 1.6875852863563188 Q 4.228251867322579 1.6733545171255495 4.228251867322579 1.651816055587088 L 4.228251867322579 1.6122006709717034 Q 4.216713405784118 1.6310468248178571 4.196713405784118 1.642392978664011 Q 4.176713405784118 1.653739132510165 4.154790328861041 1.653739132510165 M 4.162098021168734 1.631816055587088 Q 4.17402109809181 1.631816055587088 4.1849826365533485 1.6275852863563187 Q 4.195944175014887 1.6233545171255495 4.205174944245656 1.6162391325101648 Q 4.214405713476426 1.6091237478947802 4.220559559630272 1.6002775940486265 Q 4.226713405784118 1.5914314402024725 4.228251867322579 1.5822006709717034 L 4.228251867322579 1.5202775940486264 Q 4.222482636553349 1.5056622094332417 4.211713405784118 1.4943160555870878 Q 4.200944175014887 1.4829699017409341 4.1872903288610415 1.4766237478947801 Q 4.173636482707195 1.4702775940486263 4.15902109809181 1.4702775940486263 Q 4.142098021168733 1.4702775940486263 4.128828790399503 1.477392978664011 Q 4.115559559630272 1.4845083632793956 4.10652109809181 1.4962391325101647 Q 4.097482636553349 1.507969901740934 4.092482636553349 1.5225852863563187 Q 4.087482636553348 1.5372006709717032 4.087482636553348 1.551816055587088 Q 4.087482636553348 1.567969901740934 4.0932518673225795 1.582392978664011 Q 4.099021098091811 1.5968160555870878 4.109213405784118 1.6081622094332417 Q 4.119405713476426 1.6195083632793956 4.133059559630272 1.6256622094332418 Q 4.146713405784118 1.631816055587088 4.162098021168734 1.631816055587088 M 4.599403459870656 1.401816055587088 L 4.502095767562964 1.401816055587088 L 4.502095767562964 1.6510468248178571 L 4.475172690639886 1.6510468248178571 L 4.475172690639886 1.401816055587088 L 4.3778649983321944 1.401816055587088 L 4.3778649983321944 1.3779699017409341 L 4.599403459870656 1.3779699017409341 L 4.599403459870656 1.401816055587088 M 4.80382090277931 1.6510468248178571 L 4.7776670566254635 1.6510468248178571 L 4.7776670566254635 1.5391237478947801 Q 4.7776670566254635 1.5052775940486263 4.765743979702386 1.4881622094332418 Q 4.75382090277931 1.4710468248178572 4.7315132104716175 1.4710468248178572 Q 4.716897825856233 1.4710468248178572 4.702474748933156 1.478546824817857 Q 4.688051672010079 1.486046824817857 4.677090133548541 1.4989314402024725 Q 4.666128595087002 1.5118160555870879 4.661513210471617 1.5283545171255495 L 4.661513210471617 1.6510468248178571 L 4.635359364317772 1.6510468248178571 L 4.635359364317772 1.3702775940486263 L 4.661513210471617 1.3702775940486263 L 4.661513210471617 1.4960468248178571 Q 4.673436287394694 1.4737391325101648 4.694782441240848 1.460469901740934 Q 4.716128595087002 1.4472006709717034 4.740359364317771 1.4472006709717034 Q 4.757667056625464 1.4472006709717034 4.7697824412408485 1.4533545171255495 Q 4.781897825856233 1.4595083632793955 4.789397825856233 1.4712391325101648 Q 4.796897825856233 1.4829699017409341 4.800359364317772 1.498546824817857 Q 4.80382090277931 1.5141237478947802 4.80382090277931 1.5337391325101648 L 4.80382090277931 1.6510468248178571 M 4.946708522971617 1.654892978664011 Q 4.925170061433156 1.654892978664011 4.906708522971618 1.6466237478947803 Q 4.888246984510079 1.6383545171255494 4.8747854460485405 1.6239314402024725 Q 4.8613239075870025 1.6095083632793956 4.853823907587002 1.5906622094332417 Q 4.846323907587002 1.571816055587088 4.846323907587002 1.5502775940486264 Q 4.846323907587002 1.5222006709717033 4.859208522971618 1.4987391325101649 Q 4.872093138356233 1.4752775940486265 4.894785446048541 1.4612391325101648 Q 4.917477753740848 1.4472006709717034 4.9463239075870025 1.4472006709717034 Q 4.975939292202387 1.4472006709717034 4.998054676817771 1.4614314402024724 Q 5.020170061433156 1.4756622094332417 5.032862369125464 1.4989314402024725 Q 5.045554676817772 1.5222006709717033 5.045554676817772 1.549892978664011 Q 5.045554676817772 1.552969901740934 5.045554676817772 1.5558545171255493 Q 5.045554676817772 1.5587391325101647 5.045170061433156 1.5602775940486264 L 4.873631599894694 1.5602775940486264 Q 4.875554676817772 1.581816055587088 4.885746984510079 1.5985468248178571 Q 4.895939292202387 1.6152775940486264 4.912285446048541 1.6250852863563188 Q 4.928631599894695 1.634892978664011 4.947862369125464 1.634892978664011 Q 4.967477753740848 1.634892978664011 4.984977753740848 1.624892978664011 Q 5.002477753740848 1.614892978664011 5.0094008306639255 1.5987391325101648 L 5.032093138356233 1.604892978664011 Q 5.025939292202387 1.6191237478947802 5.013246984510079 1.6306622094332417 Q 5.000554676817772 1.6422006709717032 4.9834392922023865 1.6485468248178572 Q 4.966323907587002 1.654892978664011 4.946708522971617 1.654892978664011 M 4.872862369125464 1.5414314402024725 L 5.020939292202387 1.5414314402024725 Q 5.019400830663925 1.5195083632793955 5.009208522971617 1.5029699017409341 Q 4.99901621527931 1.4864314402024725 4.982670061433156 1.4770083632793956 Q 4.966323907587002 1.4675852863563186 4.946708522971617 1.4675852863563186 Q 4.927093138356233 1.4675852863563186 4.910939292202387 1.4770083632793956 Q 4.894785446048541 1.4864314402024725 4.884593138356233 1.5031622094332417 Q 4.874400830663926 1.519892978664011 4.872862369125464 1.5414314402024725 M 5.384583560531714 1.6510468248178571 L 5.358429714377868 1.6510468248178571 L 5.358429714377868 1.5391237478947801 Q 5.358429714377868 1.5041237478947802 5.347275868224021 1.4875852863563186 Q 5.3361220220701755 1.4710468248178572 5.314198945147099 1.4710468248178572 Q 5.291506637454791 1.4710468248178572 5.2736220220701755 1.4872006709717032 Q 5.25573740668556 1.5033545171255493 5.248429714377868 1.528739132510165 L 5.248429714377868 1.6510468248178571 L 5.222275868224021 1.6510468248178571 L 5.222275868224021 1.5391237478947801 Q 5.222275868224021 1.5037391325101648 5.211506637454791 1.487392978664011 Q 5.20073740668556 1.4710468248178572 5.1784297143778675 1.4710468248178572 Q 5.156122022070176 1.4710468248178572 5.138045098993253 1.486816055587088 Q 5.11996817591633 1.5025852863563187 5.112660483608637 1.5283545171255495 L 5.112660483608637 1.6510468248178571 L 5.086506637454791 1.6510468248178571 L 5.086506637454791 1.4506622094332418 L 5.1103527913009446 1.4506622094332418 L 5.1103527913009446 1.4960468248178571 Q 5.123045098993252 1.4725852863563187 5.142852791300944 1.459892978664011 Q 5.162660483608637 1.4472006709717034 5.186891252839406 1.4472006709717034 Q 5.211891252839406 1.4472006709717034 5.227275868224021 1.4614314402024724 Q 5.242660483608637 1.4756622094332417 5.246122022070176 1.4987391325101649 Q 5.259968175916329 1.4733545171255495 5.279391252839406 1.4602775940486263 Q 5.298814329762483 1.4472006709717034 5.323429714377868 1.4472006709717034 Q 5.340352791300945 1.4472006709717034 5.352083560531714 1.4533545171255495 Q 5.363814329762484 1.4595083632793955 5.370929714377867 1.4708545171255494 Q 5.378045098993252 1.4822006709717033 5.381314329762483 1.4981622094332416 Q 5.384583560531714 1.5141237478947802 5.384583560531714 1.5337391325101648 L 5.384583560531714 1.6510468248178571 M 5.7599724953273865 1.3779699017409341 L 5.7599724953273865 1.6510468248178571 L 5.733434033788925 1.6510468248178571 L 5.733434033788925 1.5233545171255494 L 5.571510956865849 1.5233545171255494 L 5.571510956865849 1.6510468248178571 L 5.544587879942771 1.6510468248178571 L 5.544587879942771 1.3779699017409341 L 5.571510956865849 1.3779699017409341 L 5.571510956865849 1.4995083632793955 L 5.733434033788925 1.4995083632793955 L 5.733434033788925 1.3779699017409341 L 5.7599724953273865 1.3779699017409341 M 5.905926521769694 1.654892978664011 Q 5.884388060231233 1.654892978664011 5.866118829462002 1.6466237478947803 Q 5.847849598692771 1.6383545171255494 5.83458036792354 1.6239314402024725 Q 5.82131113715431 1.6095083632793956 5.814003444846618 1.5908545171255495 Q 5.806695752538925 1.5722006709717034 5.806695752538925 1.5514314402024725 Q 5.806695752538925 1.529892978664011 5.814003444846618 1.5112391325101648 Q 5.82131113715431 1.4925852863563187 5.834772675615849 1.4781622094332416 Q 5.848234214077387 1.4637391325101647 5.866503444846617 1.455469901740934 Q 5.8847726756158485 1.4472006709717034 5.90631113715431 1.4472006709717034 Q 5.927849598692771 1.4472006709717034 5.945926521769694 1.455469901740934 Q 5.964003444846617 1.4637391325101647 5.977464983308156 1.4781622094332416 Q 5.990926521769694 1.4925852863563187 5.998234214077387 1.5112391325101648 Q 6.005541906385079 1.529892978664011 6.005541906385079 1.5514314402024725 Q 6.005541906385079 1.5722006709717034 5.998234214077387 1.5908545171255495 Q 5.990926521769694 1.6095083632793956 5.9776572910004635 1.6239314402024725 Q 5.964388060231233 1.6383545171255494 5.946118829462002 1.6466237478947803 Q 5.927849598692771 1.654892978664011 5.905926521769694 1.654892978664011 M 5.833234214077387 1.551816055587088 Q 5.833234214077387 1.5741237478947803 5.843041906385079 1.592392978664011 Q 5.852849598692772 1.6106622094332417 5.869388060231233 1.6212391325101647 Q 5.8859265217696946 1.631816055587088 5.905926521769694 1.631816055587088 Q 5.925926521769695 1.631816055587088 5.942464983308156 1.6210468248178571 Q 5.959003444846617 1.6102775940486265 5.969003444846617 1.5916237478947801 Q 5.979003444846618 1.572969901740934 5.979003444846618 1.551046824817857 Q 5.979003444846618 1.528739132510165 5.969003444846617 1.5102775940486264 Q 5.959003444846617 1.4918160555870879 5.942464983308156 1.4810468248178572 Q 5.925926521769695 1.4702775940486263 5.905926521769694 1.4702775940486263 Q 5.8859265217696946 1.4702775940486263 5.8695803679235405 1.4814314402024724 Q 5.8532342140773865 1.4925852863563187 5.843234214077387 1.5108545171255494 Q 5.833234214077387 1.5291237478947801 5.833234214077387 1.551816055587088 M 6.348030638356232 1.6510468248178571 L 6.321876792202387 1.6510468248178571 L 6.321876792202387 1.5391237478947801 Q 6.321876792202387 1.5041237478947802 6.31072294604854 1.4875852863563186 Q 6.299569099894694 1.4710468248178572 6.277646022971617 1.4710468248178572 Q 6.25495371527931 1.4710468248178572 6.237069099894694 1.4872006709717032 Q 6.2191844845100785 1.5033545171255493 6.2118767922023865 1.528739132510165 L 6.2118767922023865 1.6510468248178571 L 6.18572294604854 1.6510468248178571 L 6.18572294604854 1.5391237478947801 Q 6.18572294604854 1.5037391325101648 6.17495371527931 1.487392978664011 Q 6.164184484510079 1.4710468248178572 6.141876792202386 1.4710468248178572 Q 6.1195690998946946 1.4710468248178572 6.1014921768177715 1.486816055587088 Q 6.083415253740848 1.5025852863563187 6.0761075614331554 1.5283545171255495 L 6.0761075614331554 1.6510468248178571 L 6.04995371527931 1.6510468248178571 L 6.04995371527931 1.4506622094332418 L 6.073799869125463 1.4506622094332418 L 6.073799869125463 1.4960468248178571 Q 6.086492176817771 1.4725852863563187 6.106299869125463 1.459892978664011 Q 6.126107561433156 1.4472006709717034 6.150338330663925 1.4472006709717034 Q 6.175338330663925 1.4472006709717034 6.19072294604854 1.4614314402024724 Q 6.206107561433155 1.4756622094332417 6.209569099894694 1.4987391325101649 Q 6.223415253740848 1.4733545171255495 6.242838330663925 1.4602775940486263 Q 6.262261407587002 1.4472006709717034 6.286876792202387 1.4472006709717034 Q 6.303799869125464 1.4472006709717034 6.315530638356233 1.4533545171255495 Q 6.327261407587002 1.4595083632793955 6.334376792202386 1.4708545171255494 Q 6.341492176817771 1.4822006709717033 6.344761407587002 1.4981622094332416 Q 6.348030638356232 1.5141237478947802 6.348030638356232 1.5337391325101648 L 6.348030638356232 1.6510468248178571 M 6.490533079762482 1.654892978664011 Q 6.468994618224021 1.654892978664011 6.450533079762483 1.6466237478947803 Q 6.432071541300944 1.6383545171255494 6.418610002839405 1.6239314402024725 Q 6.405148464377867 1.6095083632793956 6.397648464377867 1.5906622094332417 Q 6.390148464377867 1.571816055587088 6.390148464377867 1.5502775940486264 Q 6.390148464377867 1.5222006709717033 6.403033079762483 1.4987391325101649 Q 6.4159176951470975 1.4752775940486265 6.438610002839406 1.4612391325101648 Q 6.461302310531713 1.4472006709717034 6.490148464377867 1.4472006709717034 Q 6.519763848993252 1.4472006709717034 6.541879233608636 1.4614314402024724 Q 6.5639946182240205 1.4756622094332417 6.576686925916329 1.4989314402024725 Q 6.5893792336086365 1.5222006709717033 6.5893792336086365 1.549892978664011 Q 6.5893792336086365 1.552969901740934 6.5893792336086365 1.5558545171255493 Q 6.5893792336086365 1.5587391325101647 6.588994618224021 1.5602775940486264 L 6.417456156685559 1.5602775940486264 Q 6.419379233608637 1.581816055587088 6.429571541300944 1.5985468248178571 Q 6.439763848993252 1.6152775940486264 6.456110002839406 1.6250852863563188 Q 6.47245615668556 1.634892978664011 6.491686925916329 1.634892978664011 Q 6.511302310531713 1.634892978664011 6.528802310531713 1.624892978664011 Q 6.546302310531713 1.614892978664011 6.55322538745479 1.5987391325101648 L 6.575917695147098 1.604892978664011 Q 6.569763848993252 1.6191237478947802 6.557071541300944 1.6306622094332417 Q 6.544379233608637 1.6422006709717032 6.527263848993251 1.6485468248178572 Q 6.510148464377867 1.654892978664011 6.490533079762482 1.654892978664011 M 6.416686925916329 1.5414314402024725 L 6.564763848993252 1.5414314402024725 Q 6.56322538745479 1.5195083632793955 6.553033079762482 1.5029699017409341 Q 6.542840772070175 1.4864314402024725 6.526494618224021 1.4770083632793956 Q 6.510148464377867 1.4675852863563186 6.490533079762482 1.4675852863563186 Q 6.470917695147098 1.4675852863563186 6.4547638489932515 1.4770083632793956 Q 6.438610002839406 1.4864314402024725 6.428417695147098 1.5031622094332417 Q 6.4182253874547905 1.519892978664011 6.416686925916329 1.5414314402024725" fill="#ba8437" fill-rule="nonzero"></path></g></g><defs><clipPath id="SvgjsClipPath52918"><path d=" M 3.03894091796875 -0.19027759404862643 h 2.2294979503903516 v 1.0605551880972528 h -2.2294979503903516 Z"></path></clipPath><clipPath id="SvgjsClipPath52916a714b0d8-394f-4bb7-b6bf-78c053ecdb5d"><path d=" M 3.03894091796875 -0.19027759404862632 L 5.268438868359102 -0.19027759404862632 L 5.268438868359102 0.8702775940486261 L 3.03894091796875 0.8702775940486261 Z"></path></clipPath></defs></svg>